<?xml version="1.0" encoding="UTF-8"?>
<svg width="311px" height="42px" viewBox="0 0 311 42" version="1.1" xmlns="http://www.w3.org/2000/svg" xmlns:xlink="http://www.w3.org/1999/xlink">
    <title>Logo/v1_full@1x</title>
    <g id="Logo/v1_full" stroke="none" stroke-width="1" fill="none" fill-rule="evenodd">
        <g id="Modern-Luxury---DNA" transform="translate(0.000000, 14.886000)" fill="#000000" fill-rule="nonzero">
            <path d="M6.3,8.064 L5.742,8.064 C5.622,8.064 5.52,8.016 5.436,7.92 L2.088,3.366 C1.884,3.09 1.668,2.793 1.44,2.475 C1.212,2.157 1.032,1.89 0.9,1.674 C0.912,1.974 0.918,2.316 0.918,2.7 C0.918,3.084 0.918,3.42 0.918,3.708 L0.918,12.114 L0,12.114 L0,0.18 L0.63,0.18 C0.714,0.18 0.771,0.186 0.801,0.198 C0.831,0.21 0.876,0.252 0.936,0.324 L5.94,7.164 L10.944,0.324 C10.992,0.264 11.034,0.225 11.07,0.207 C11.106,0.189 11.16,0.18 11.232,0.18 L11.79,0.18 L11.79,12.114 L10.89,12.114 L10.89,3.78 C10.89,3.492 10.89,3.156 10.89,2.772 C10.89,2.388 10.896,2.046 10.908,1.746 C10.776,1.938 10.593,2.199 10.359,2.529 C10.125,2.859 9.906,3.162 9.702,3.438 L6.3,8.064 Z" id="Path"></path>
            <path d="M20.4865714,6.156 C20.4865714,5.34 20.6245714,4.56 20.9005714,3.816 C21.1765714,3.072 21.5665714,2.418 22.0705714,1.854 C22.5745714,1.29 23.1805714,0.84 23.8885714,0.504 C24.5965714,0.168 25.3825714,0 26.2465714,0 C27.1105714,0 27.8965714,0.168 28.6045714,0.504 C29.3125714,0.84 29.9185714,1.29 30.4225714,1.854 C30.9265714,2.418 31.3165714,3.072 31.5925714,3.816 C31.8685714,4.56 32.0065714,5.34 32.0065714,6.156 C32.0065714,6.972 31.8685714,7.752 31.5925714,8.496 C31.3165714,9.24 30.9265714,9.894 30.4225714,10.458 C29.9185714,11.022 29.3125714,11.469 28.6045714,11.799 C27.8965714,12.129 27.1105714,12.294 26.2465714,12.294 C25.3825714,12.294 24.5965714,12.129 23.8885714,11.799 C23.1805714,11.469 22.5745714,11.022 22.0705714,10.458 C21.5665714,9.894 21.1765714,9.24 20.9005714,8.496 C20.6245714,7.752 20.4865714,6.972 20.4865714,6.156 Z M31.0345714,6.156 C31.0345714,5.376 30.9175714,4.665 30.6835714,4.023 C30.4495714,3.381 30.1225714,2.829 29.7025714,2.367 C29.2825714,1.905 28.7785714,1.545 28.1905714,1.287 C27.6025714,1.029 26.9545714,0.9 26.2465714,0.9 C25.5385714,0.9 24.8905714,1.029 24.3025714,1.287 C23.7145714,1.545 23.2105714,1.905 22.7905714,2.367 C22.3705714,2.829 22.0435714,3.381 21.8095714,4.023 C21.5755714,4.665 21.4585714,5.376 21.4585714,6.156 C21.4585714,6.936 21.5755714,7.647 21.8095714,8.289 C22.0435714,8.931 22.3705714,9.483 22.7905714,9.945 C23.2105714,10.407 23.7145714,10.764 24.3025714,11.016 C24.8905714,11.268 25.5385714,11.394 26.2465714,11.394 C26.9545714,11.394 27.6025714,11.268 28.1905714,11.016 C28.7785714,10.764 29.2825714,10.407 29.7025714,9.945 C30.1225714,9.483 30.4495714,8.931 30.6835714,8.289 C30.9175714,7.647 31.0345714,6.936 31.0345714,6.156 Z" id="Shape"></path>
            <path d="M43.8351429,11.322 C44.8311429,11.322 45.6921429,11.241 46.4181429,11.079 C47.1441429,10.917 47.7651429,10.644 48.2811429,10.26 C48.8211429,9.852 49.2261429,9.309 49.4961429,8.631 C49.7661429,7.953 49.9011429,7.122 49.9011429,6.138 C49.9011429,5.154 49.7661429,4.326 49.4961429,3.654 C49.2261429,2.982 48.8211429,2.442 48.2811429,2.034 C47.7651429,1.65 47.1441429,1.377 46.4181429,1.215 C45.6921429,1.053 44.8311429,0.972 43.8351429,0.972 L41.6571429,0.972 L41.6571429,11.322 L43.8351429,11.322 Z M40.7031429,12.114 L40.7031429,0.18 L44.0691429,0.18 C45.0411429,0.18 45.9231429,0.27 46.7151429,0.45 C47.5071429,0.63 48.1971429,0.93 48.7851429,1.35 C49.4451429,1.818 49.9581429,2.442 50.3241429,3.222 C50.6901429,4.002 50.8731429,4.974 50.8731429,6.138 C50.8731429,7.302 50.6901429,8.277 50.3241429,9.063 C49.9581429,9.849 49.4451429,10.476 48.7851429,10.944 C48.1971429,11.364 47.5071429,11.664 46.7151429,11.844 C45.9231429,12.024 45.0411429,12.114 44.0691429,12.114 L40.7031429,12.114 Z" id="Shape"></path>
            <polygon id="Path" points="66.6977143 0.18 66.6977143 0.954 60.5237143 0.954 60.5237143 5.49 66.1037143 5.49 66.1037143 6.264 60.5237143 6.264 60.5237143 11.34 66.9137143 11.34 66.9137143 12.114 59.5697143 12.114 59.5697143 0.18"></polygon>
            <path d="M80.9382857,6.66 C81.2502857,6.66 81.5322857,6.615 81.7842857,6.525 C82.0362857,6.435 82.2462857,6.258 82.4142857,5.994 C82.6182857,5.694 82.7622857,5.352 82.8462857,4.968 C82.9302857,4.584 82.9722857,4.188 82.9722857,3.78 C82.9722857,3.312 82.9182857,2.898 82.8102857,2.538 C82.7022857,2.178 82.5282857,1.884 82.2882857,1.656 C82.0242857,1.404 81.6822857,1.224 81.2622857,1.116 C80.8422857,1.008 80.3022857,0.954 79.6422857,0.954 L76.6002857,0.954 L76.6002857,6.66 L80.9382857,6.66 Z M79.8042857,0.18 C80.5842857,0.18 81.2322857,0.261 81.7482857,0.423 C82.2642857,0.585 82.6902857,0.828 83.0262857,1.152 C83.3382857,1.464 83.5662857,1.839 83.7102857,2.277 C83.8542857,2.715 83.9262857,3.204 83.9262857,3.744 C83.9262857,4.164 83.8812857,4.566 83.7912857,4.95 C83.7012857,5.334 83.5692857,5.682 83.3952857,5.994 C83.2212857,6.306 83.0052857,6.576 82.7472857,6.804 C82.4892857,7.032 82.1922857,7.206 81.8562857,7.326 L84.6102857,12.114 L83.8002857,12.114 C83.7042857,12.114 83.6412857,12.105 83.6112857,12.087 C83.5812857,12.069 83.5482857,12.03 83.5122857,11.97 L81.0282857,7.596 C80.9802857,7.512 80.9412857,7.461 80.9112857,7.443 C80.8812857,7.425 80.8182857,7.416 80.7222857,7.416 L76.6002857,7.416 L76.6002857,12.114 L75.6462857,12.114 L75.6462857,0.18 L79.8042857,0.18 Z" id="Shape"></path>
            <path d="M101.244857,9.126 C101.436857,9.366 101.646857,9.63 101.874857,9.918 C102.102857,10.206 102.300857,10.476 102.468857,10.728 C102.444857,10.404 102.429857,10.062 102.423857,9.702 C102.417857,9.342 102.414857,9.042 102.414857,8.802 L102.414857,0.18 L103.314857,0.18 L103.314857,12.114 L102.756857,12.114 C102.672857,12.114 102.615857,12.105 102.585857,12.087 C102.555857,12.069 102.510857,12.03 102.450857,11.97 L95.3228571,3.204 C95.1188571,2.964 94.9058571,2.7 94.6838571,2.412 C94.4618571,2.124 94.2668571,1.854 94.0988571,1.602 C94.1228571,1.926 94.1378571,2.268 94.1438571,2.628 C94.1498571,2.988 94.1528571,3.288 94.1528571,3.528 L94.1528571,12.114 L93.2348571,12.114 L93.2348571,0.18 L93.7568571,0.18 C93.8528571,0.18 93.9188571,0.189 93.9548571,0.207 C93.9908571,0.225 94.0388571,0.27 94.0988571,0.342 L101.244857,9.126 Z" id="Path"></path>
            <polygon id="Path" points="123.3 0.18 124.254 0.18 124.254 11.34 130.356 11.34 130.356 12.114 123.3 12.114"></polygon>
            <path d="M147.692571,7.722 C147.692571,8.418 147.608571,9.021 147.440571,9.531 C147.272571,10.041 147.014571,10.488 146.666571,10.872 C146.258571,11.328 145.748571,11.679 145.136571,11.925 C144.524571,12.171 143.822571,12.294 143.030571,12.294 C142.238571,12.294 141.536571,12.171 140.924571,11.925 C140.312571,11.679 139.802571,11.328 139.394571,10.872 C139.046571,10.488 138.785571,10.038 138.611571,9.522 C138.437571,9.006 138.350571,8.4 138.350571,7.704 L138.350571,0.18 L139.304571,0.18 L139.304571,7.542 C139.304571,8.226 139.370571,8.79 139.502571,9.234 C139.634571,9.678 139.856571,10.062 140.168571,10.386 C140.480571,10.71 140.882571,10.962 141.374571,11.142 C141.866571,11.322 142.418571,11.412 143.030571,11.412 C143.642571,11.412 144.194571,11.322 144.686571,11.142 C145.178571,10.962 145.580571,10.71 145.892571,10.386 C146.204571,10.062 146.426571,9.678 146.558571,9.234 C146.690571,8.79 146.756571,8.226 146.756571,7.542 L146.756571,0.18 L147.692571,0.18 L147.692571,7.722 Z" id="Path"></path>
            <path d="M165.659143,12.114 C165.587143,12.114 165.533143,12.105 165.497143,12.087 C165.461143,12.069 165.425143,12.036 165.389143,11.988 L161.159143,6.462 L157.055143,11.97 C157.007143,12.03 156.968143,12.069 156.938143,12.087 C156.908143,12.105 156.857143,12.114 156.785143,12.114 L155.867143,12.114 L160.619143,5.796 L156.299143,0.18 L157.199143,0.18 C157.271143,0.18 157.322143,0.189 157.352143,0.207 C157.382143,0.225 157.421143,0.264 157.469143,0.324 L161.195143,5.166 L164.813143,0.324 C164.861143,0.264 164.900143,0.225 164.930143,0.207 C164.960143,0.189 165.023143,0.18 165.119143,0.18 L165.965143,0.18 L161.735143,5.814 L166.559143,12.114 L165.659143,12.114 Z" id="Path"></path>
            <path d="M184.075714,7.722 C184.075714,8.418 183.991714,9.021 183.823714,9.531 C183.655714,10.041 183.397714,10.488 183.049714,10.872 C182.641714,11.328 182.131714,11.679 181.519714,11.925 C180.907714,12.171 180.205714,12.294 179.413714,12.294 C178.621714,12.294 177.919714,12.171 177.307714,11.925 C176.695714,11.679 176.185714,11.328 175.777714,10.872 C175.429714,10.488 175.168714,10.038 174.994714,9.522 C174.820714,9.006 174.733714,8.4 174.733714,7.704 L174.733714,0.18 L175.687714,0.18 L175.687714,7.542 C175.687714,8.226 175.753714,8.79 175.885714,9.234 C176.017714,9.678 176.239714,10.062 176.551714,10.386 C176.863714,10.71 177.265714,10.962 177.757714,11.142 C178.249714,11.322 178.801714,11.412 179.413714,11.412 C180.025714,11.412 180.577714,11.322 181.069714,11.142 C181.561714,10.962 181.963714,10.71 182.275714,10.386 C182.587714,10.062 182.809714,9.678 182.941714,9.234 C183.073714,8.79 183.139714,8.226 183.139714,7.542 L183.139714,0.18 L184.075714,0.18 L184.075714,7.722 Z" id="Path"></path>
            <path d="M198.748286,6.66 C199.060286,6.66 199.342286,6.615 199.594286,6.525 C199.846286,6.435 200.056286,6.258 200.224286,5.994 C200.428286,5.694 200.572286,5.352 200.656286,4.968 C200.740286,4.584 200.782286,4.188 200.782286,3.78 C200.782286,3.312 200.728286,2.898 200.620286,2.538 C200.512286,2.178 200.338286,1.884 200.098286,1.656 C199.834286,1.404 199.492286,1.224 199.072286,1.116 C198.652286,1.008 198.112286,0.954 197.452286,0.954 L194.410286,0.954 L194.410286,6.66 L198.748286,6.66 Z M197.614286,0.18 C198.394286,0.18 199.042286,0.261 199.558286,0.423 C200.074286,0.585 200.500286,0.828 200.836286,1.152 C201.148286,1.464 201.376286,1.839 201.520286,2.277 C201.664286,2.715 201.736286,3.204 201.736286,3.744 C201.736286,4.164 201.691286,4.566 201.601286,4.95 C201.511286,5.334 201.379286,5.682 201.205286,5.994 C201.031286,6.306 200.815286,6.576 200.557286,6.804 C200.299286,7.032 200.002286,7.206 199.666286,7.326 L202.420286,12.114 L201.610286,12.114 C201.514286,12.114 201.451286,12.105 201.421286,12.087 C201.391286,12.069 201.358286,12.03 201.322286,11.97 L198.838286,7.596 C198.790286,7.512 198.751286,7.461 198.721286,7.443 C198.691286,7.425 198.628286,7.416 198.532286,7.416 L194.410286,7.416 L194.410286,12.114 L193.456286,12.114 L193.456286,0.18 L197.614286,0.18 Z" id="Shape"></path>
            <path d="M214.644857,8.1 L214.644857,12.114 L213.690857,12.114 L213.690857,8.1 L209.082857,0.18 L209.910857,0.18 C210.030857,0.18 210.120857,0.228 210.180857,0.324 L214.176857,7.29 L218.190857,0.342 C218.226857,0.282 218.262857,0.24 218.298857,0.216 C218.334857,0.192 218.400857,0.18 218.496857,0.18 L219.288857,0.18 L214.644857,8.1 Z" id="Path"></path>
            <polygon id="Path" points="237.618 8.082 237.618 7.344 242.676 7.344 242.676 8.082"></polygon>
            <path d="M265.541143,11.322 C266.537143,11.322 267.398143,11.241 268.124143,11.079 C268.850143,10.917 269.471143,10.644 269.987143,10.26 C270.527143,9.852 270.932143,9.309 271.202143,8.631 C271.472143,7.953 271.607143,7.122 271.607143,6.138 C271.607143,5.154 271.472143,4.326 271.202143,3.654 C270.932143,2.982 270.527143,2.442 269.987143,2.034 C269.471143,1.65 268.850143,1.377 268.124143,1.215 C267.398143,1.053 266.537143,0.972 265.541143,0.972 L263.363143,0.972 L263.363143,11.322 L265.541143,11.322 Z M262.409143,12.114 L262.409143,0.18 L265.775143,0.18 C266.747143,0.18 267.629143,0.27 268.421143,0.45 C269.213143,0.63 269.903143,0.93 270.491143,1.35 C271.151143,1.818 271.664143,2.442 272.030143,3.222 C272.396143,4.002 272.579143,4.974 272.579143,6.138 C272.579143,7.302 272.396143,8.277 272.030143,9.063 C271.664143,9.849 271.151143,10.476 270.491143,10.944 C269.903143,11.364 269.213143,11.664 268.421143,11.844 C267.629143,12.024 266.747143,12.114 265.775143,12.114 L262.409143,12.114 Z" id="Shape"></path>
            <path d="M289.285714,9.126 C289.477714,9.366 289.687714,9.63 289.915714,9.918 C290.143714,10.206 290.341714,10.476 290.509714,10.728 C290.485714,10.404 290.470714,10.062 290.464714,9.702 C290.458714,9.342 290.455714,9.042 290.455714,8.802 L290.455714,0.18 L291.355714,0.18 L291.355714,12.114 L290.797714,12.114 C290.713714,12.114 290.656714,12.105 290.626714,12.087 C290.596714,12.069 290.551714,12.03 290.491714,11.97 L283.363714,3.204 C283.159714,2.964 282.946714,2.7 282.724714,2.412 C282.502714,2.124 282.307714,1.854 282.139714,1.602 C282.163714,1.926 282.178714,2.268 282.184714,2.628 C282.190714,2.988 282.193714,3.288 282.193714,3.528 L282.193714,12.114 L281.275714,12.114 L281.275714,0.18 L281.797714,0.18 C281.893714,0.18 281.959714,0.189 281.995714,0.207 C282.031714,0.225 282.079714,0.27 282.139714,0.342 L289.285714,9.126 Z" id="Path"></path>
            <path d="M309.970286,12.114 C309.850286,12.114 309.766286,12.066 309.718286,11.97 L308.440286,8.964 L301.960286,8.964 L300.718286,11.97 C300.694286,12.03 300.667286,12.069 300.637286,12.087 C300.607286,12.105 300.556286,12.114 300.484286,12.114 L299.674286,12.114 L304.660286,0.18 L305.452286,0.18 C305.536286,0.18 305.593286,0.192 305.623286,0.216 C305.653286,0.24 305.680286,0.282 305.704286,0.342 L310.780286,12.114 L309.970286,12.114 Z M308.098286,8.19 L306.334286,4.014 C306.106286,3.474 305.881286,2.934 305.659286,2.394 C305.437286,1.854 305.266286,1.416 305.146286,1.08 C305.026286,1.416 304.864286,1.848 304.660286,2.376 C304.456286,2.904 304.240286,3.438 304.012286,3.978 L302.284286,8.19 L308.098286,8.19 Z" id="Shape"></path>
        </g>
    </g>
</svg>